<svg width="45" height="53" viewBox="0 0 45 53" fill="none" xmlns="http://www.w3.org/2000/svg">
<path d="M10.0385 53C4.86288 53 2.38696 50.2369 1.22112 47.9189C0.0138461 45.5182 0 43.1204 0 43.0195V9.98052C0 9.87968 0.0138461 7.48172 1.22112 5.08112C2.38696 2.76311 4.86288 0 10.0385 0H26.6538C26.8401 0 31.2676 0.0255822 35.7355 2.24653C39.962 4.34761 45 8.82783 45 18.2403C45 27.6527 39.962 32.1329 35.7355 34.2339C31.2676 36.4549 26.8401 36.4805 26.6538 36.4805H20.0769V43.0195C20.0769 43.1204 20.0631 45.5182 18.8558 47.9189C17.69 50.2369 15.214 53 10.0385 53ZM3.46154 43.0195C3.46165 43.0292 3.48819 44.7922 4.36385 46.4707C5.44777 48.5485 7.30396 49.5584 10.0385 49.5584C12.8125 49.5584 14.684 48.5187 15.7596 46.3798C16.5921 44.7244 16.6154 43.0361 16.6154 43.0195V36.5514C15.0794 36.6516 12.7258 36.8929 10.4069 37.4744C5.79831 38.63 3.46154 40.4957 3.46154 43.0195ZM18.3462 33.039H26.6538C26.6886 33.0388 30.5443 32.9998 34.2876 31.1055C39.0989 28.6707 41.5385 24.3421 41.5385 18.2403C41.5385 12.095 39.0652 7.74959 34.1875 5.32489C30.4424 3.46313 26.6912 3.44156 26.6538 3.44156H10.0385C7.26438 3.44156 5.39296 4.48125 4.31735 6.62018C3.48485 8.27557 3.46154 9.96389 3.46154 9.98052V36.7397C4.89704 35.7142 6.88731 34.8017 9.61869 34.1228C13.9297 33.0512 18.1679 33.039 18.3462 33.039Z" fill="white"/>
</svg>
